<svg id="svg" version="1.1" xmlns="http://www.w3.org/2000/svg" xmlns:xlink="http://www.w3.org/1999/xlink" width="400" height="400" viewBox="0, 0, 400,400"><g id="svgg"><path id="path0" d="M233.302 96.344 C 217.188 112.545,187.693 142.111,167.759 162.047 C 135.449 194.360,131.561 198.380,131.938 199.084 C 132.171 199.519,144.509 212.008,159.357 226.837 C 201.752 269.181,200.882 268.338,201.801 267.980 C 203.033 267.500,333.748 137.044,333.561 136.482 C 333.155 135.266,264.184 66.802,263.407 66.844 C 262.902 66.872,251.644 77.903,233.302 96.344 " stroke="none" fill="#facb4c" fill-rule="evenodd"></path><path id="path1" d="M45.300 0.291 C 44.365 0.376,43.600 0.616,43.600 0.823 C 43.600 1.030,42.981 1.200,42.224 1.200 C 41.467 1.200,40.736 1.380,40.600 1.600 C 40.464 1.820,40.003 2.000,39.576 2.000 C 39.149 2.000,38.800 2.180,38.800 2.400 C 38.800 2.620,38.260 2.800,37.600 2.800 C 36.940 2.800,36.400 2.980,36.400 3.200 C 36.400 3.420,36.040 3.600,35.600 3.600 C 35.160 3.600,34.800 3.746,34.800 3.925 C 34.800 4.104,34.178 4.495,33.418 4.793 C 32.658 5.091,32.115 5.463,32.212 5.619 C 32.308 5.775,31.872 6.006,31.242 6.132 C 30.612 6.258,29.818 6.640,29.477 6.980 C 29.136 7.321,28.680 7.600,28.464 7.600 C 28.248 7.600,27.641 8.095,27.115 8.700 C 26.589 9.305,25.920 9.853,25.627 9.917 C 25.144 10.024,22.433 12.717,19.683 15.823 C 18.449 17.216,17.255 19.071,16.929 20.100 C 16.807 20.485,16.548 20.800,16.353 20.800 C 16.159 20.800,16.000 21.070,16.000 21.400 C 16.000 21.730,15.820 22.000,15.600 22.000 C 15.380 22.000,15.221 22.135,15.247 22.300 C 15.373 23.097,15.160 23.622,14.800 23.400 C 14.566 23.255,14.400 23.670,14.400 24.400 C 14.400 25.130,14.234 25.545,14.000 25.400 C 13.773 25.260,13.600 25.596,13.600 26.176 C 13.600 26.739,13.420 27.200,13.200 27.200 C 12.980 27.200,12.800 27.751,12.800 28.424 C 12.800 29.097,12.665 29.564,12.500 29.463 C 12.335 29.361,12.160 29.832,12.111 30.509 C 12.061 31.186,11.860 31.843,11.662 31.970 C 11.295 32.206,10.928 34.013,10.601 37.200 C 10.500 38.190,10.282 39.900,10.118 41.000 C 9.616 44.362,9.812 356.403,10.319 360.800 C 10.923 366.041,11.243 367.761,11.662 368.030 C 11.860 368.157,12.061 368.814,12.111 369.491 C 12.160 370.168,12.335 370.639,12.500 370.537 C 12.665 370.436,12.800 370.903,12.800 371.576 C 12.800 372.249,12.980 372.800,13.200 372.800 C 13.420 372.800,13.600 373.261,13.600 373.824 C 13.600 374.404,13.773 374.740,14.000 374.600 C 14.228 374.459,14.400 374.801,14.400 375.393 C 14.400 375.965,14.760 376.820,15.200 377.292 C 15.640 377.764,16.000 378.387,16.000 378.675 C 16.000 378.964,16.180 379.200,16.400 379.200 C 16.620 379.200,16.800 379.571,16.800 380.024 C 16.800 380.477,16.980 380.736,17.200 380.600 C 17.420 380.464,17.600 380.599,17.600 380.901 C 17.600 381.202,17.960 381.836,18.400 382.308 C 18.840 382.780,19.200 383.314,19.200 383.495 C 19.200 383.676,19.560 384.083,20.000 384.400 C 20.440 384.717,20.800 385.127,20.800 385.311 C 20.800 385.826,24.304 389.163,24.568 388.899 C 24.695 388.771,24.800 388.967,24.800 389.333 C 24.800 389.923,24.998 390.049,25.820 389.982 C 25.942 389.972,26.522 390.512,27.109 391.182 C 27.697 391.852,28.326 392.400,28.506 392.400 C 28.686 392.400,29.220 392.760,29.692 393.200 C 30.164 393.640,30.978 394.000,31.499 394.000 C 32.029 394.000,32.338 394.176,32.200 394.400 C 32.064 394.620,32.289 394.800,32.701 394.800 C 33.112 394.800,33.836 395.160,34.308 395.600 C 34.780 396.040,35.433 396.400,35.760 396.400 C 36.086 396.400,36.464 396.580,36.600 396.800 C 36.736 397.020,37.287 397.200,37.824 397.200 C 38.361 397.200,38.800 397.380,38.800 397.600 C 38.800 397.820,39.250 398.000,39.800 398.000 C 40.350 398.000,40.800 398.180,40.800 398.400 C 40.800 398.620,41.415 398.800,42.167 398.800 C 42.918 398.800,43.608 399.025,43.700 399.300 C 43.945 400.036,312.055 400.036,312.300 399.300 C 312.392 399.025,312.981 398.800,313.610 398.800 C 314.238 398.800,314.864 398.620,315.000 398.400 C 315.136 398.180,315.787 398.000,316.447 398.000 C 317.145 398.000,317.544 397.833,317.400 397.600 C 317.260 397.373,317.596 397.200,318.176 397.200 C 318.739 397.200,319.200 397.020,319.200 396.800 C 319.200 396.580,319.560 396.400,320.000 396.400 C 320.440 396.400,320.800 396.254,320.800 396.075 C 320.800 395.896,321.434 395.501,322.209 395.197 C 322.983 394.893,323.911 394.319,324.271 393.922 C 324.630 393.525,325.126 393.200,325.374 393.200 C 325.621 393.200,326.083 392.840,326.400 392.400 C 326.717 391.960,327.214 391.600,327.505 391.600 C 328.130 391.600,328.279 391.476,332.296 387.623 C 334.003 385.985,335.355 384.500,335.300 384.323 C 335.245 384.145,335.358 384.000,335.551 384.000 C 336.023 384.000,339.241 379.801,339.353 379.040 C 339.402 378.709,339.747 378.100,340.122 377.687 C 340.496 377.273,340.707 376.840,340.591 376.725 C 340.475 376.609,340.655 376.286,340.990 376.008 C 341.326 375.730,341.600 375.018,341.600 374.426 C 341.600 373.835,341.955 372.970,342.388 372.505 C 342.943 371.910,343.032 371.600,342.688 371.461 C 342.312 371.309,342.315 371.256,342.700 371.232 C 342.975 371.214,343.200 370.851,343.200 370.424 C 343.200 369.997,343.380 369.536,343.600 369.400 C 343.820 369.264,344.000 368.443,344.000 367.576 C 344.000 366.709,344.180 366.000,344.400 366.000 C 344.620 366.000,344.800 365.100,344.800 364.000 C 344.800 362.900,344.980 362.000,345.200 362.000 C 345.465 362.000,345.600 332.733,345.600 275.000 C 345.600 227.150,345.498 188.000,345.374 188.000 C 344.676 188.000,343.191 189.067,335.634 195.000 C 333.641 196.565,326.485 202.359,325.200 203.448 C 321.414 206.657,313.789 212.901,307.426 218.000 C 300.634 223.444,300.338 223.738,299.182 226.200 C 297.406 229.982,294.472 232.351,290.671 233.073 C 288.787 233.431,287.353 234.253,284.620 236.542 C 283.270 237.674,280.463 239.983,278.382 241.673 C 266.397 251.412,264.498 252.975,263.473 253.939 L 262.346 255.000 275.873 255.206 C 287.434 255.381,289.736 255.517,291.710 256.137 C 301.749 259.291,302.890 271.892,293.565 276.618 L 291.627 277.600 263.019 277.600 L 234.412 277.600 228.106 282.664 C 224.638 285.449,221.160 288.284,220.378 288.964 C 219.597 289.644,215.921 292.630,212.210 295.600 C 208.500 298.570,204.511 301.825,203.346 302.833 C 197.500 307.894,182.739 312.042,160.800 314.789 C 149.920 316.151,148.053 316.373,142.000 317.024 C 138.810 317.367,134.760 317.806,133.000 317.999 C 131.240 318.192,128.720 318.468,127.400 318.611 C 126.080 318.755,123.830 319.203,122.400 319.607 C 120.970 320.010,118.000 320.841,115.800 321.452 L 111.800 322.564 89.025 322.441 C 65.279 322.312,63.574 322.196,60.890 320.527 C 53.609 316.001,54.307 304.670,62.083 301.157 C 64.165 300.216,64.448 300.197,79.200 300.000 L 94.200 299.800 94.430 297.000 C 94.710 293.597,96.214 288.298,98.412 282.972 C 99.314 280.787,100.151 278.685,100.273 278.300 C 100.481 277.640,99.446 277.600,82.347 277.596 L 64.200 277.592 62.192 276.657 C 54.738 273.186,53.517 263.327,59.894 258.102 C 63.186 255.404,64.893 255.229,88.070 255.214 L 108.340 255.200 109.328 252.100 C 109.872 250.395,110.888 247.110,111.587 244.800 C 112.286 242.490,113.308 239.209,113.858 237.510 C 114.409 235.810,114.745 234.235,114.606 234.010 C 114.438 233.738,106.482 233.600,90.923 233.600 C 74.821 233.600,66.702 233.454,64.966 233.135 C 56.078 231.497,52.595 220.214,59.150 214.293 C 62.595 211.180,59.889 211.423,93.600 211.200 L 123.800 211.000 125.600 207.574 C 128.691 201.690,129.880 200.092,135.275 194.568 C 138.159 191.616,140.446 189.159,140.359 189.108 C 140.272 189.057,122.920 188.922,101.800 188.808 L 63.400 188.600 61.773 187.729 C 53.864 183.496,53.769 172.694,61.600 168.064 L 63.400 167.000 113.200 166.895 L 163.000 166.790 173.905 155.895 C 183.598 146.210,184.709 144.971,183.905 144.740 C 183.407 144.597,156.360 144.452,123.800 144.418 C 68.645 144.360,64.491 144.308,63.000 143.663 C 54.053 139.794,53.072 128.322,61.298 123.765 L 63.400 122.600 135.411 122.496 L 207.423 122.391 218.311 111.474 C 224.300 105.470,229.200 100.433,229.200 100.281 C 229.200 100.130,191.985 99.959,146.500 99.903 L 63.800 99.800 61.964 98.919 C 53.912 95.056,53.726 83.266,61.652 79.181 C 64.686 77.617,65.718 77.601,160.000 77.634 L 251.800 77.667 257.361 72.233 C 260.419 69.245,263.209 66.800,263.561 66.800 C 263.912 66.800,277.970 80.505,294.800 97.255 C 311.630 114.006,327.302 129.585,329.627 131.876 L 333.854 136.041 337.926 131.921 C 340.165 129.654,341.996 127.530,341.994 127.200 C 341.992 126.870,326.421 111.035,307.391 92.012 C 288.362 72.988,272.839 57.299,272.896 57.148 C 273.162 56.444,280.857 48.800,281.300 48.800 C 281.576 48.800,297.551 64.550,316.800 83.800 C 336.049 103.050,352.015 118.800,352.281 118.800 C 352.546 118.800,353.260 118.305,353.867 117.700 C 354.473 117.095,355.101 116.641,355.260 116.692 C 355.420 116.742,355.665 116.425,355.804 115.986 C 355.944 115.547,356.225 115.292,356.429 115.418 C 356.633 115.544,356.800 115.410,356.800 115.120 C 356.800 114.396,358.594 112.519,359.588 112.204 C 362.024 111.431,362.034 111.441,325.396 74.810 C 306.148 55.565,290.400 39.693,290.400 39.539 C 290.400 38.944,298.174 31.200,298.771 31.200 C 299.118 31.200,315.140 46.940,334.377 66.177 C 353.613 85.414,369.487 101.070,369.651 100.968 C 369.816 100.866,370.121 101.087,370.329 101.459 C 370.644 102.022,370.753 101.924,370.986 100.864 C 371.140 100.165,371.430 99.695,371.633 99.820 C 371.835 99.945,372.000 99.767,372.000 99.424 C 372.000 99.081,372.270 98.800,372.600 98.800 C 372.930 98.800,373.200 98.609,373.200 98.376 C 373.200 98.143,373.361 98.052,373.557 98.174 C 373.754 98.295,374.029 97.938,374.169 97.381 C 374.309 96.823,374.598 96.475,374.812 96.607 C 375.025 96.739,375.205 96.612,375.211 96.324 C 375.217 96.036,375.840 95.350,376.596 94.800 C 377.351 94.250,378.050 93.602,378.149 93.359 C 378.248 93.117,362.505 77.098,343.165 57.762 C 323.824 38.426,308.000 22.321,308.000 21.973 C 308.000 20.940,318.705 10.728,321.600 9.001 C 325.456 6.699,325.526 6.494,322.900 5.163 C 321.855 4.633,320.940 4.065,320.867 3.900 C 320.793 3.735,320.388 3.600,319.967 3.600 C 319.545 3.600,319.200 3.420,319.200 3.200 C 319.200 2.980,318.851 2.800,318.424 2.800 C 317.997 2.800,317.536 2.620,317.400 2.400 C 317.264 2.180,316.713 2.000,316.176 2.000 C 315.639 2.000,315.200 1.820,315.200 1.600 C 315.200 1.380,314.660 1.200,314.000 1.200 C 313.340 1.200,312.800 1.050,312.800 0.867 C 312.800 0.683,312.575 0.475,312.300 0.404 C 311.578 0.218,47.330 0.105,45.300 0.291 " stroke="none" fill="#cbd3db" fill-rule="evenodd"></path><path id="path2" d="M272.400 198.406 C 213.539 257.103,200.827 269.591,198.051 271.450 C 188.123 278.097,164.539 286.618,130.128 295.993 L 126.055 297.103 125.593 294.251 C 123.816 283.294,117.327 276.779,106.012 274.593 C 102.837 273.979,102.674 274.038,101.787 276.124 C 101.394 277.046,100.673 278.700,100.184 279.800 C 99.696 280.900,99.026 282.430,98.696 283.200 C 98.165 284.438,96.662 288.961,95.539 292.700 C 94.596 295.839,94.630 300.973,95.608 302.930 L 96.527 304.770 95.795 307.475 C 92.234 320.629,99.182 324.569,117.777 319.940 C 121.284 319.067,124.262 318.285,124.394 318.203 C 124.606 318.072,128.463 317.618,143.200 315.989 C 145.290 315.757,148.350 315.404,150.000 315.203 C 151.650 315.002,154.710 314.645,156.800 314.411 C 162.141 313.811,166.629 313.229,169.200 312.803 C 170.410 312.603,172.570 312.246,174.000 312.011 C 176.868 311.539,177.258 311.452,185.600 309.414 C 194.798 307.167,200.476 304.918,202.400 302.759 C 202.730 302.388,205.160 300.342,207.800 298.211 C 210.440 296.081,213.320 293.744,214.200 293.020 C 219.806 288.403,226.290 283.079,226.800 282.674 C 227.130 282.412,228.781 281.073,230.469 279.699 C 232.156 278.324,233.646 277.200,233.780 277.200 C 234.164 277.200,259.533 256.535,262.208 254.043 C 264.299 252.095,268.444 248.681,281.977 237.761 C 283.640 236.419,286.530 234.166,288.400 232.754 C 292.909 229.349,297.957 225.245,299.198 223.975 C 300.238 222.912,308.812 215.791,316.988 209.200 C 324.684 202.997,331.281 197.642,333.163 196.071 C 334.132 195.262,335.302 194.340,335.763 194.023 C 336.223 193.706,336.690 193.336,336.800 193.202 C 336.910 193.067,338.530 191.732,340.400 190.235 C 342.270 188.738,343.922 187.218,344.072 186.857 C 344.614 185.547,344.446 127.600,343.900 127.602 C 343.625 127.603,311.450 159.465,272.400 198.406 " stroke="none" fill="#606f77" fill-rule="evenodd"></path><path id="path3" d="M328.000 5.600 C 328.000 5.820,327.280 6.000,326.400 6.000 C 325.104 6.000,324.800 6.142,324.800 6.747 C 324.800 7.251,323.919 7.998,322.100 9.038 C 320.254 10.094,317.567 12.388,313.602 16.293 L 307.805 22.003 343.002 57.202 C 362.764 76.965,378.504 92.400,378.896 92.400 C 380.785 92.400,391.600 80.996,391.600 79.004 C 391.600 78.672,391.780 78.400,392.000 78.400 C 392.220 78.400,392.400 78.040,392.400 77.600 C 392.400 77.160,392.580 76.800,392.800 76.800 C 393.020 76.800,393.200 76.260,393.200 75.600 C 393.200 74.940,393.380 74.400,393.600 74.400 C 393.820 74.400,394.000 73.680,394.000 72.800 C 394.000 71.920,394.180 71.200,394.400 71.200 C 394.647 71.200,394.800 69.141,394.800 65.824 C 394.800 62.671,394.635 60.345,394.400 60.200 C 394.180 60.064,394.000 59.423,394.000 58.776 C 394.000 58.129,393.820 57.600,393.600 57.600 C 393.380 57.600,393.200 57.060,393.200 56.400 C 393.200 55.740,393.020 55.200,392.800 55.200 C 392.580 55.200,392.400 54.840,392.400 54.400 C 392.400 53.960,392.220 53.600,392.000 53.600 C 391.780 53.600,391.600 53.240,391.600 52.800 C 391.600 52.360,391.464 52.000,391.298 52.000 C 391.131 52.000,390.763 51.476,390.480 50.836 C 390.197 50.196,388.253 47.991,386.161 45.936 C 384.068 43.881,380.161 39.972,377.478 37.248 C 374.795 34.525,371.097 30.835,369.261 29.048 C 364.039 23.969,358.906 18.808,355.200 14.911 C 351.767 11.301,348.115 8.400,347.004 8.400 C 346.672 8.400,346.400 8.220,346.400 8.000 C 346.400 7.780,346.040 7.600,345.600 7.600 C 345.160 7.600,344.800 7.464,344.800 7.297 C 344.800 6.931,341.933 6.000,340.806 6.000 C 340.363 6.000,340.000 5.820,340.000 5.600 C 340.000 5.351,337.733 5.200,334.000 5.200 C 330.267 5.200,328.000 5.351,328.000 5.600 M131.326 199.400 C 130.277 200.551,127.579 204.963,126.313 207.600 C 124.520 211.335,122.800 215.162,122.800 215.416 C 122.800 215.522,122.448 216.372,122.019 217.304 C 119.990 221.707,117.238 229.272,115.218 236.000 C 114.723 237.650,114.156 239.313,113.959 239.695 C 113.762 240.077,113.600 240.741,113.600 241.171 C 113.600 241.601,113.420 242.064,113.200 242.200 C 112.980 242.336,112.800 242.889,112.800 243.429 C 112.800 243.969,112.638 244.723,112.439 245.105 C 112.240 245.487,111.860 246.610,111.593 247.600 C 111.327 248.590,110.970 249.760,110.800 250.200 C 110.630 250.640,110.270 251.810,110.000 252.800 C 109.730 253.790,109.370 254.960,109.200 255.400 C 109.030 255.840,108.692 256.920,108.449 257.800 C 108.206 258.680,107.654 260.570,107.222 262.000 C 103.112 275.614,103.246 274.221,106.009 274.601 C 116.038 275.981,124.228 283.851,125.365 293.203 C 125.785 296.651,125.794 296.656,129.654 295.483 C 131.494 294.924,135.520 293.720,138.600 292.807 C 153.000 288.540,171.449 282.778,173.800 281.812 C 178.071 280.059,181.188 278.824,182.400 278.404 C 187.427 276.664,194.370 273.219,198.700 270.319 C 201.328 268.558,202.174 267.827,201.268 268.100 C 201.086 268.155,197.663 264.960,193.662 261.000 C 178.441 245.936,143.938 211.493,137.945 205.380 C 133.958 201.312,131.558 199.145,131.326 199.400 " stroke="none" fill="#eb5c6c" fill-rule="evenodd"></path><path id="path4" d="M324.200 7.236 C 323.980 7.454,323.440 7.904,323.000 8.236 C 322.334 8.738,322.418 8.733,323.500 8.209 C 324.215 7.863,324.800 7.404,324.800 7.190 C 324.800 6.718,324.717 6.724,324.200 7.236 M320.293 9.814 C 319.472 10.372,318.800 10.915,318.800 11.020 C 318.800 11.125,319.520 10.735,320.400 10.153 C 321.797 9.228,322.270 8.800,321.893 8.800 C 321.834 8.800,321.114 9.256,320.293 9.814 M313.014 16.386 C 310.168 19.239,307.920 21.624,308.020 21.686 C 308.119 21.749,310.533 19.415,313.383 16.500 C 316.234 13.585,318.482 11.200,318.378 11.200 C 318.274 11.200,315.860 13.534,313.014 16.386 M342.800 57.400 C 362.049 76.650,377.888 92.400,377.998 92.400 C 378.108 92.400,362.449 76.650,343.200 57.400 C 323.951 38.150,308.112 22.400,308.002 22.400 C 307.892 22.400,323.551 38.150,342.800 57.400 M294.270 35.229 C 292.142 37.445,290.400 39.384,290.400 39.539 C 290.400 39.693,306.148 55.565,325.396 74.810 C 344.987 94.397,360.394 110.108,360.396 110.500 C 360.402 111.554,360.410 111.548,365.622 106.427 C 369.494 102.622,371.606 99.760,369.648 100.970 C 369.485 101.071,353.613 85.414,334.377 66.177 C 315.140 46.940,299.118 31.200,298.771 31.200 C 298.424 31.200,296.399 33.013,294.270 35.229 M276.899 52.836 C 274.754 55.056,272.953 56.996,272.896 57.148 C 272.839 57.299,288.362 72.988,307.391 92.012 C 326.421 111.035,341.992 126.870,341.994 127.200 C 341.996 127.530,340.165 129.654,337.926 131.921 L 333.854 136.041 329.427 131.721 L 325.000 127.400 329.317 131.823 C 332.760 135.351,333.577 136.404,333.352 137.023 C 333.198 137.451,335.356 135.550,338.148 132.800 C 340.941 130.050,343.490 127.742,343.813 127.671 C 344.437 127.533,344.691 185.362,344.072 186.857 C 343.922 187.218,342.270 188.738,340.400 190.235 C 338.530 191.732,336.910 193.067,336.800 193.202 C 336.690 193.336,336.223 193.706,335.763 194.023 C 335.302 194.340,334.132 195.262,333.163 196.071 C 331.281 197.642,324.684 202.997,316.988 209.200 C 308.812 215.791,300.238 222.912,299.198 223.975 C 297.957 225.245,292.909 229.349,288.400 232.754 C 286.530 234.166,283.640 236.419,281.977 237.761 C 268.444 248.681,264.299 252.095,262.208 254.043 C 259.533 256.535,234.164 277.200,233.780 277.200 C 233.646 277.200,232.156 278.324,230.469 279.699 C 228.781 281.073,227.130 282.412,226.800 282.674 C 226.290 283.079,219.806 288.403,214.200 293.020 C 213.320 293.744,210.440 296.081,207.800 298.211 C 205.160 300.342,202.730 302.388,202.400 302.759 C 200.476 304.918,194.798 307.167,185.600 309.414 C 177.258 311.452,176.868 311.539,174.000 312.011 C 172.570 312.246,170.410 312.603,169.200 312.803 C 166.629 313.229,162.141 313.811,156.800 314.411 C 154.710 314.645,151.650 315.002,150.000 315.203 C 148.350 315.404,145.290 315.757,143.200 315.989 C 128.463 317.618,124.606 318.072,124.394 318.203 C 124.262 318.285,121.284 319.067,117.777 319.940 C 99.182 324.569,92.234 320.629,95.795 307.475 C 96.523 304.783,96.523 304.762,95.663 303.041 C 94.710 301.132,94.557 298.074,95.242 294.600 C 95.987 290.820,96.020 290.090,95.360 292.000 C 95.018 292.990,94.617 295.150,94.469 296.800 L 94.200 299.800 79.200 300.000 C 64.448 300.197,64.165 300.216,62.083 301.157 C 54.307 304.670,53.609 316.001,60.890 320.527 C 63.574 322.196,65.279 322.312,89.025 322.441 L 111.800 322.564 115.800 321.452 C 118.000 320.841,120.970 320.010,122.400 319.607 C 123.830 319.203,126.080 318.755,127.400 318.611 C 128.720 318.468,131.240 318.192,133.000 317.999 C 134.760 317.806,138.810 317.367,142.000 317.024 C 148.053 316.373,149.920 316.151,160.800 314.789 C 171.938 313.394,182.701 311.305,190.000 309.120 C 196.900 307.054,200.344 305.432,203.346 302.833 C 204.511 301.825,208.500 298.570,212.210 295.600 C 215.921 292.630,219.597 289.644,220.378 288.964 C 221.160 288.284,224.638 285.449,228.106 282.664 L 234.412 277.600 263.019 277.600 L 291.627 277.600 293.565 276.618 C 302.890 271.892,301.749 259.291,291.710 256.137 C 289.736 255.517,287.434 255.381,275.873 255.206 L 262.346 255.000 263.473 253.939 C 264.498 252.975,266.397 251.412,278.382 241.673 C 280.463 239.983,283.270 237.674,284.620 236.542 C 287.353 234.253,288.787 233.431,290.671 233.073 C 294.472 232.351,297.406 229.982,299.182 226.200 C 300.338 223.738,300.634 223.444,307.426 218.000 C 313.789 212.901,321.414 206.657,325.200 203.448 C 326.485 202.359,333.641 196.565,335.634 195.000 C 341.806 190.154,343.727 188.725,344.601 188.327 L 345.600 187.872 345.600 157.083 L 345.600 126.294 346.461 125.547 C 346.935 125.136,347.475 124.800,347.661 124.800 C 347.848 124.800,348.000 124.640,348.000 124.445 C 348.000 124.249,349.456 122.674,351.236 120.945 C 353.016 119.215,354.662 117.440,354.892 117.000 C 355.127 116.552,354.758 116.772,354.053 117.500 C 353.360 118.215,352.569 118.800,352.296 118.800 C 352.022 118.800,336.049 103.050,316.800 83.800 C 297.551 64.550,281.576 48.800,281.300 48.800 C 281.024 48.800,279.043 50.616,276.899 52.836 M65.287 78.045 C 54.484 79.844,52.194 94.232,61.964 98.919 L 63.800 99.800 146.803 99.903 L 229.807 100.006 240.603 89.146 C 249.958 79.737,251.293 78.245,250.600 77.972 C 249.495 77.536,67.913 77.608,65.287 78.045 M378.243 93.033 C 377.867 94.011,377.949 94.108,378.600 93.457 C 379.280 92.777,379.367 92.400,378.843 92.400 C 378.646 92.400,378.376 92.685,378.243 93.033 M376.254 95.055 C 375.623 95.597,375.181 96.115,375.271 96.204 C 375.361 96.294,375.951 95.924,376.582 95.382 C 377.213 94.840,377.655 94.322,377.565 94.232 C 377.474 94.142,376.884 94.512,376.254 95.055 M357.816 113.496 C 356.925 114.457,356.537 115.200,356.926 115.200 C 356.996 115.200,357.611 114.570,358.292 113.800 C 359.745 112.160,359.312 111.883,357.816 113.496 M63.153 122.952 C 53.193 126.511,53.159 139.538,63.098 143.678 C 64.695 144.343,68.367 144.386,125.092 144.408 L 185.389 144.431 196.368 133.415 L 207.348 122.400 135.974 122.418 C 78.663 122.432,64.315 122.537,63.153 122.952 M319.598 151.100 L 307.400 163.400 319.700 151.202 C 331.131 139.867,332.180 138.800,331.898 138.800 C 331.841 138.800,326.306 144.335,319.598 151.100 M63.051 167.387 C 54.084 170.583,53.292 183.190,61.773 187.729 L 63.400 188.600 102.000 188.800 L 140.600 189.000 151.799 177.900 L 162.998 166.800 113.799 166.818 C 73.009 166.832,64.335 166.929,63.051 167.387 M289.400 181.200 C 286.767 183.840,284.703 186.000,284.813 186.000 C 284.923 186.000,287.167 183.840,289.800 181.200 C 292.433 178.560,294.497 176.400,294.387 176.400 C 294.277 176.400,292.033 178.560,289.400 181.200 M130.575 199.507 C 129.171 201.218,127.083 204.636,125.141 208.400 L 123.800 211.000 93.600 211.200 C 59.889 211.423,62.595 211.180,59.150 214.293 C 52.595 220.214,56.078 231.497,64.966 233.135 C 66.702 233.454,74.821 233.600,90.923 233.600 C 106.482 233.600,114.438 233.738,114.606 234.010 C 114.745 234.235,114.409 235.810,113.858 237.510 C 113.308 239.209,112.286 242.490,111.587 244.800 C 110.888 247.110,109.872 250.395,109.328 252.100 L 108.340 255.200 88.070 255.214 C 64.893 255.229,63.186 255.404,59.894 258.102 C 53.517 263.327,54.738 273.186,62.192 276.657 L 64.200 277.592 82.300 277.596 C 94.668 277.599,100.400 277.733,100.400 278.020 C 100.400 278.251,100.109 279.003,99.753 279.691 C 98.691 281.744,95.956 289.267,96.106 289.718 C 96.183 289.949,96.660 288.891,97.167 287.369 C 98.090 284.595,98.650 283.185,100.015 280.200 C 100.417 279.320,101.114 277.733,101.563 276.672 C 102.012 275.612,102.719 274.442,103.133 274.072 C 103.576 273.678,104.511 271.251,105.396 268.200 C 106.226 265.340,107.125 262.280,107.395 261.400 C 107.664 260.520,108.111 258.990,108.388 258.000 C 108.665 257.010,109.030 255.840,109.200 255.400 C 109.370 254.960,109.730 253.790,110.000 252.800 C 110.270 251.810,110.630 250.640,110.800 250.200 C 110.970 249.760,111.327 248.590,111.593 247.600 C 111.860 246.610,112.240 245.487,112.439 245.105 C 112.638 244.723,112.800 243.969,112.800 243.429 C 112.800 242.889,112.980 242.336,113.200 242.200 C 113.420 242.064,113.600 241.601,113.600 241.171 C 113.600 240.741,113.762 240.077,113.959 239.695 C 114.156 239.313,114.723 237.650,115.218 236.000 C 117.238 229.272,119.990 221.707,122.019 217.304 C 122.448 216.372,122.800 215.522,122.800 215.416 C 122.800 215.162,124.520 211.335,126.313 207.600 C 127.608 204.904,130.533 200.114,131.199 199.600 C 131.452 199.405,132.062 197.993,131.887 198.007 C 131.839 198.011,131.249 198.686,130.575 199.507 M234.985 235.300 L 233.000 237.400 235.100 235.415 C 236.255 234.323,237.200 233.378,237.200 233.315 C 237.200 233.017,236.829 233.349,234.985 235.300 M228.800 241.400 C 227.828 242.390,227.123 243.200,227.233 243.200 C 227.343 243.200,228.228 242.390,229.200 241.400 C 230.172 240.410,230.877 239.600,230.767 239.600 C 230.657 239.600,229.772 240.410,228.800 241.400 M216.196 254.100 L 208.200 262.200 216.300 254.204 C 220.755 249.806,224.400 246.161,224.400 246.104 C 224.400 245.819,223.626 246.574,216.196 254.100 M205.785 264.500 L 203.800 266.600 205.900 264.615 C 207.055 263.523,208.000 262.578,208.000 262.515 C 208.000 262.217,207.629 262.549,205.785 264.500 M203.030 267.152 C 202.723 267.649,196.124 272.100,194.200 273.108 C 190.790 274.896,184.904 277.537,182.400 278.404 C 181.188 278.824,178.071 280.059,173.800 281.812 C 171.471 282.769,153.137 288.498,138.800 292.749 C 127.212 296.185,126.000 296.573,126.000 296.840 C 126.000 297.239,134.254 294.946,154.200 289.006 C 173.935 283.129,190.338 276.574,198.051 271.481 C 201.017 269.522,204.185 266.800,203.498 266.800 C 203.360 266.800,203.149 266.959,203.030 267.152 " stroke="none" fill="#9babb3" fill-rule="evenodd"></path></g></svg>